<?xml version="1.0" encoding="UTF-8"?>
<!DOCTYPE svg PUBLIC "-//W3C//DTD SVG 1.1//EN" "http://www.w3.org/Graphics/SVG/1.1/DTD/svg11.dtd">
<!-- Creator: CorelDRAW -->
<svg xmlns="http://www.w3.org/2000/svg" xml:space="preserve" width="0.710453in" height="0.710457in" version="1.1" style="shape-rendering:geometricPrecision; text-rendering:geometricPrecision; image-rendering:optimizeQuality; fill-rule:evenodd; clip-rule:evenodd"
viewBox="0 0 68.46 68.46"
 xmlns:xlink="http://www.w3.org/1999/xlink"
 xmlns:xodm="http://www.corel.com/coreldraw/odm/2003">
 <defs>
  <style type="text/css">
   <![CDATA[
    .fil0 {fill:#C0550F}
   ]]>
  </style>
 </defs>
 <g id="Layer_x0020_1">
  <metadata id="CorelCorpID_0Corel-Layer"/>
  <path class="fil0" d="M-0 38.88l2.06 0c1.02,7.11 4.34,13.48 9.19,18.33 4.85,4.85 11.22,8.17 18.33,9.19l0 2.06 9.3 0 0 -2.06c7.11,-1.02 13.48,-4.34 18.33,-9.19 4.85,-4.85 8.17,-11.22 9.19,-18.33l2.06 0 0 -9.3 -2.06 0c-1.02,-7.11 -4.34,-13.48 -9.19,-18.33 -4.85,-4.85 -11.22,-8.17 -18.33,-9.19l0 -2.06 -9.3 0 0 2.06c-7.11,1.02 -13.48,4.34 -18.33,9.19 -4.85,4.85 -8.17,11.22 -9.19,18.33l-2.06 0 0 9.3zm34.23 -9.23c2.53,0 4.58,2.05 4.58,4.58 0,2.53 -2.05,4.58 -4.58,4.58 -2.53,0 -4.58,-2.05 -4.58,-4.58 0,-2.53 2.05,-4.58 4.58,-4.58zm4.65 -15.58c3.84,0.88 7.28,2.84 9.97,5.53 2.69,2.69 4.65,6.13 5.53,9.97l9.3 0c-1,-6.37 -4.01,-12.07 -8.37,-16.43 -4.36,-4.36 -10.06,-7.37 -16.43,-8.37l0 9.3zm15.5 24.8c-0.88,3.84 -2.84,7.28 -5.53,9.97 -2.69,2.69 -6.13,4.65 -9.97,5.53l0 9.3c6.37,-1 12.07,-4.01 16.43,-8.37 4.36,-4.36 7.37,-10.06 8.37,-16.43l-9.3 0zm-24.8 15.5c-3.84,-0.88 -7.28,-2.84 -9.97,-5.53 -2.69,-2.69 -4.65,-6.13 -5.53,-9.97l-9.3 0c1,6.37 4.01,12.07 8.37,16.43 4.36,4.36 10.06,7.37 16.43,8.37l0 -9.3zm-15.5 -24.8c0.88,-3.84 2.84,-7.28 5.53,-9.97 2.69,-2.69 6.13,-4.65 9.97,-5.53l0 -9.3c-6.37,1 -12.07,4.01 -16.43,8.37 -4.36,4.36 -7.37,10.06 -8.37,16.43l9.3 0zm32.88 -8.07c-2.2,-2.2 -4.97,-3.84 -8.07,-4.66l0 0.43 -9.3 9.3 0 -9.73c-3.1,0.83 -5.87,2.46 -8.07,4.66 -2.2,2.2 -3.84,4.97 -4.66,8.07l0.43 0 9.3 9.3 -9.73 0c0.83,3.1 2.46,5.87 4.66,8.07 2.2,2.2 4.97,3.84 8.07,4.66l0 -0.43 9.3 -9.3 0 9.73c3.1,-0.83 5.87,-2.46 8.07,-4.66 2.2,-2.2 3.84,-4.97 4.66,-8.07l-0.43 0 -9.3 -9.3 9.73 0c-0.83,-3.1 -2.46,-5.87 -4.66,-8.07z"/>
 </g>
</svg>
