<svg width="112" height="24" viewBox="0 0 112 24" fill="none" xmlns="http://www.w3.org/2000/svg">
<g clip-path="url(#clip0_131_2205)">
<g clip-path="url(#clip1_131_2205)">
<path d="M36.2312 18.4017V0.255859H40.4546V20.4918V22.6251L36.2312 18.4017ZM33.2516 0.255859V19.6368L37.0776 23.4629H36.7926H33.0356H29.0195V0.255859H33.2516Z" fill="white"/>
<path d="M21.6528 4.10786H18.8113V9.48857H14.5879V3.09736L17.6367 0.255859H21.6528H23.2419H25.8762V6.68162V13.6601V16.5448L24.2784 19.6454H25.2198H25.8848V23.4715H23.9761H14.5879V17.1839H18.8113V19.6368C19.1999 19.6368 19.4418 19.6368 19.8304 19.6368L21.6528 16.113V4.10786Z" fill="white"/>
<path d="M111.025 23.4629H99.1238V4.47924H94.9004V0.255859H99.1238H103.347V19.6368H106.802V13.3924H111.025V23.4629Z" fill="white"/>
<path d="M86.8594 23.4629V0.255859H91.0741V8.25351H94.9002V12.0796H91.0741V19.6368H96.9817V23.4629H86.8594Z" fill="white"/>
<path d="M54.6798 23.4629H43.6074V14.1265H47.8308V19.6368H50.4564V13.3751L43.7542 8.31397V0.255859H54.5675V6.24978H50.7328V4.10786H47.9776V6.73344L54.6798 11.7773V23.4629Z" fill="white"/>
<path d="M65.0426 18.4017V0.255859H69.266V20.4918V22.6251L65.0426 18.4017ZM62.0543 0.255859V19.6368L65.8804 23.4629H65.604H61.8384H57.8223V0.255859H62.0543Z" fill="white"/>
<path d="M79.4837 4.10786H76.6422V9.48857H72.4188V3.09736L75.4676 0.255859H79.4837H81.0728H83.7071V6.68162V13.6601V16.5448L82.1093 19.6454H83.0507H83.7157V23.4715H81.7897H72.4102V17.1839H76.6335V19.6368C77.0222 19.6368 77.264 19.6368 77.6527 19.6368L79.475 16.113V4.10786H79.4837Z" fill="white"/>
<path d="M7.21171 18.4017V10.0413L10.0618 7.19119L7.21171 4.34105V0.255859H11.4351V22.6251L7.21171 18.4017ZM4.22338 0.255859V20.0082L7.67809 23.4629C5.12161 23.4629 2.55649 23.4629 0 23.4629V0.255859H4.22338Z" fill="white"/>
</g>
</g>
<defs>
<clipPath id="clip0_131_2205">
<rect width="111.026" height="23.207" fill="white" transform="translate(0 0.255859)"/>
</clipPath>
<clipPath id="clip1_131_2205">
<rect width="111.026" height="23.207" fill="white" transform="translate(0 0.255859)"/>
</clipPath>
</defs>
</svg>
