<svg width="114" height="114" viewBox="0 0 114 114" fill="none" xmlns="http://www.w3.org/2000/svg">
<circle cx="57" cy="57" r="57" fill="#E98C4D"/>
<path fill-rule="evenodd" clip-rule="evenodd" d="M88.0019 64.3152C88.6024 63.8949 89.4016 63.8949 90.0021 64.3153L113.256 80.5944C113.819 80.9887 114.098 81.6773 113.969 82.3526L108.155 112.585C107.997 113.406 107.278 114 106.442 114H71.5613C70.7252 114 70.0067 113.407 69.8487 112.585L64.0315 82.3528C63.9015 81.6774 64.1806 80.9887 64.7441 80.5943L88.0019 64.3152ZM67.6704 82.8039L73.0018 110.512H105.002L110.33 82.8039L89.0019 67.8732L67.6704 82.8039ZM87.7652 83.1158C88.4463 82.4347 89.5506 82.4347 90.2317 83.1158L99.5341 92.419C100.215 93.1001 100.215 94.2045 99.5341 94.8856L93.7202 100.7C93.0391 101.381 91.9348 101.381 91.2537 100.7L87.8356 97.2815L80.9297 104.188L78.4632 101.721L85.3691 94.8149L81.9513 91.3968C81.2702 90.7157 81.2702 89.6113 81.9513 88.9302L87.7652 83.1158ZM85.651 90.1635L92.4869 97L95.8344 93.6523L88.9984 86.8158L85.651 90.1635Z" fill="#1A202C"/>
</svg>
