<svg width="114" height="114" viewBox="0 0 114 114" fill="none" xmlns="http://www.w3.org/2000/svg">
<circle cx="57" cy="57" r="57" fill="#E98C4D"/>
<path fill-rule="evenodd" clip-rule="evenodd" d="M87.4912 64H87.5257C90.6308 64 93.3269 64 95.6559 64.0833L95.6859 64.0843C96.1253 64.1 96.4987 64.1134 96.7957 64.1343C97.0831 64.1544 97.4282 64.1884 97.7597 64.2876C98.3434 64.4622 99.0029 64.727 99.5419 65.2856C100.081 65.8442 100.322 66.5128 100.476 67.1024C100.573 67.4774 100.587 67.9709 100.595 68.3583C100.605 68.82 100.605 69.4469 100.605 70.245V70.2674C100.605 74.3582 103.921 77.6744 108.012 77.6744C109.77 77.6744 111.884 78.9276 111.944 81.2444C112 83.3596 112 85.7637 112 88.4828V88.5088C112 90.5896 112 92.4845 111.975 94.2032L111.975 94.2267C111.968 94.6871 111.963 95.0653 111.951 95.3577C111.941 95.6245 111.922 95.9572 111.851 96.2588C111.7 96.8917 111.458 97.6499 110.846 98.254C110.233 98.8581 109.471 99.0893 108.836 99.2305C108.504 99.3043 108.033 99.3128 107.655 99.3186C107.197 99.3256 106.565 99.3256 105.75 99.3256H105.733C101.642 99.3256 98.3256 102.642 98.3256 106.733V106.75C98.3256 107.565 98.3256 108.197 98.3186 108.655C98.3128 109.033 98.3043 109.504 98.2305 109.836C98.0893 110.471 97.8581 111.233 97.254 111.846C96.6499 112.458 95.8917 112.7 95.2588 112.851C94.9572 112.922 94.6245 112.941 94.3577 112.951C94.0653 112.963 93.6871 112.968 93.2267 112.975L93.2032 112.975C91.4845 113 89.5896 113 87.5088 113H87.4912C85.4104 113 83.5155 113 81.7968 112.975L81.7733 112.975C81.3129 112.968 80.9347 112.963 80.6423 112.951C80.3755 112.941 80.0428 112.922 79.7412 112.851C79.1083 112.7 78.3501 112.458 77.746 111.846C77.1419 111.233 76.9107 110.471 76.7695 109.836C76.6957 109.504 76.6872 109.033 76.6814 108.655C76.6744 108.197 76.6744 107.565 76.6744 106.75V106.733C76.6744 102.642 73.3582 99.3256 69.2674 99.3256H69.2502C68.4353 99.3256 67.803 99.3256 67.3448 99.3186C66.9675 99.3128 66.4957 99.3043 66.1639 99.2305C65.5289 99.0893 64.7673 98.8581 64.1545 98.254C63.5416 97.6499 63.2996 96.8917 63.1493 96.2588C63.0776 95.9572 63.0591 95.6245 63.0486 95.3576C63.037 95.0654 63.0316 94.6873 63.025 94.2271L63.0247 94.2032C63 92.4845 63 90.5896 63 88.5088V88.4912C63 86.4104 63 84.5155 63.0247 82.7968L63.025 82.7729C63.0316 82.3127 63.037 81.9346 63.0486 81.6424C63.0591 81.3755 63.0776 81.0428 63.1493 80.7412C63.2996 80.1083 63.5416 79.3501 64.1545 78.746C64.7673 78.1419 65.5289 77.9107 66.1639 77.7695C66.4957 77.6957 66.9675 77.6872 67.3448 77.6814C67.803 77.6744 68.4353 77.6744 69.2502 77.6744H69.2674C73.3582 77.6744 76.6744 74.3582 76.6744 70.2674V70.2502C76.6744 69.4353 76.6744 68.803 76.6814 68.3448C76.6872 67.9675 76.6957 67.4957 76.7695 67.1639C76.9107 66.5289 77.1419 65.7673 77.746 65.1545C78.3501 64.5416 79.1083 64.2996 79.7412 64.1493C80.0428 64.0776 80.3755 64.0591 80.6424 64.0486C80.9346 64.037 81.3127 64.0316 81.7729 64.025L81.7968 64.0247C83.5155 64 85.4104 64 87.4912 64ZM87.5 67.4186C85.4092 67.4186 83.5376 67.4186 81.8459 67.4429C81.3559 67.4499 81.0212 67.4549 80.7771 67.4645C80.5875 67.472 80.5148 67.4809 80.5071 67.4811C80.3561 67.5177 80.2588 67.5481 80.1972 67.5708C80.1767 67.629 80.1498 67.7191 80.118 67.8557C80.1168 67.8706 80.1151 67.8937 80.1133 67.9263C80.1076 68.0304 80.1029 68.1823 80.0996 68.3969C80.0931 68.8258 80.093 69.4319 80.093 70.2674C80.093 76.2462 75.2462 81.093 69.2674 81.093C68.4319 81.093 67.8258 81.0931 67.3969 81.0996C67.1823 81.1029 67.0304 81.1076 66.9263 81.1133C66.8937 81.1151 66.8706 81.1168 66.8557 81.118C66.7191 81.1498 66.629 81.1767 66.5708 81.1972C66.5481 81.2588 66.5177 81.3561 66.4811 81.5071C66.4809 81.5148 66.472 81.5875 66.4645 81.7771C66.4549 82.0212 66.4499 82.3559 66.4429 82.8459C66.4186 84.5376 66.4186 86.4092 66.4186 88.5C66.4186 90.5908 66.4186 92.4624 66.4429 94.1541C66.4499 94.6441 66.4549 94.9788 66.4645 95.2229C66.472 95.4125 66.4809 95.4852 66.4811 95.4929C66.5177 95.6439 66.5481 95.7412 66.5708 95.8028C66.629 95.8233 66.719 95.8502 66.8557 95.8819C66.8706 95.8832 66.8937 95.8849 66.9263 95.8867C67.0304 95.8924 67.1823 95.8971 67.3969 95.9004C67.8258 95.9069 68.4319 95.907 69.2674 95.907C75.2462 95.907 80.093 100.754 80.093 106.733C80.093 107.568 80.0931 108.174 80.0996 108.603C80.1029 108.818 80.1076 108.97 80.1133 109.074C80.1151 109.106 80.1168 109.129 80.118 109.144C80.1498 109.281 80.1767 109.371 80.1973 109.429C80.2588 109.452 80.3562 109.482 80.5071 109.519C80.5149 109.519 80.5876 109.528 80.7771 109.535C81.0212 109.545 81.3559 109.55 81.8459 109.557C83.5376 109.581 85.4092 109.581 87.5 109.581C89.5908 109.581 91.4624 109.581 93.1541 109.557C93.6441 109.55 93.9788 109.545 94.2229 109.535C94.4124 109.528 94.4851 109.519 94.4929 109.519C94.6438 109.482 94.7412 109.452 94.8028 109.429C94.8233 109.371 94.8502 109.281 94.8819 109.144C94.8832 109.129 94.8849 109.106 94.8867 109.074C94.8924 108.97 94.8971 108.818 94.9004 108.603C94.9069 108.174 94.907 107.568 94.907 106.733C94.907 100.754 99.7538 95.907 105.733 95.907C106.568 95.907 107.174 95.9069 107.603 95.9004C107.818 95.8971 107.97 95.8924 108.074 95.8867C108.106 95.8849 108.129 95.8832 108.144 95.8819C108.281 95.8502 108.371 95.8233 108.429 95.8027C108.452 95.7412 108.482 95.6438 108.519 95.4929C108.519 95.4851 108.528 95.4124 108.535 95.2229C108.545 94.9788 108.55 94.6441 108.557 94.1541C108.581 92.4624 108.581 90.5908 108.581 88.5C108.581 85.7605 108.581 83.3997 108.527 81.3341C108.527 81.3291 108.527 81.3261 108.526 81.323C108.525 81.3208 108.524 81.3185 108.522 81.3154C108.516 81.3046 108.498 81.2761 108.454 81.2397C108.355 81.1595 108.191 81.093 108.012 81.093C102.033 81.093 97.186 76.2462 97.186 70.2674C97.186 69.4421 97.186 68.851 97.1772 68.4292C97.1728 68.2188 97.1667 68.0732 97.1595 67.9748C97.1576 67.9482 97.1558 67.9287 97.1544 67.9154C97.1194 67.7878 97.0912 67.7106 97.0732 67.6676C97.0278 67.6467 96.9432 67.6124 96.7993 67.5686C96.7874 67.567 96.72 67.556 96.5563 67.5445C96.3251 67.5282 96.0113 67.5168 95.5338 67.4997C93.2723 67.4188 90.6352 67.4186 87.5 67.4186ZM97.1181 67.6908C97.1181 67.6908 97.1191 67.6914 97.1181 67.6908V67.6908Z" fill="#1A202C"/>
</svg>
