<svg width="114" height="115" viewBox="0 0 114 115" fill="none" xmlns="http://www.w3.org/2000/svg">
<circle cx="57" cy="57" r="57" fill="#E98C4D"/>
<path fill-rule="evenodd" clip-rule="evenodd" d="M85 78.4993V76H88V78.4993C96.4684 79.2002 103.218 85.7808 103.937 94.0375H106.5V96.9625H103.937C103.218 105.219 96.4684 111.8 88 112.501V115H85V112.501C76.5316 111.8 69.7823 105.219 69.0634 96.9625H66.5V94.0375H69.0634C69.7823 85.7808 76.5316 79.2002 85 78.4993ZM86.5 81.3625C78.4919 81.3625 72 87.6921 72 95.5C72 103.308 78.4919 109.638 86.5 109.638C94.5081 109.638 101 103.308 101 95.5C101 87.6921 94.5081 81.3625 86.5 81.3625Z" fill="#1A202C"/>
</svg>
