<svg width="211" height="45" viewBox="0 0 211 45" fill="none" xmlns="http://www.w3.org/2000/svg">
<path d="M202.39 4.83012H200.258V10.8888H199.431V4.83012H197.301V4.19385H202.39V4.83012ZM210.5 10.8888H209.669V4.89339H209.637L207.326 10.8888H206.784L204.479 4.89339H204.447V10.8888H203.62V4.1975H205.147L207.054 9.14295H207.087L208.963 4.1975H210.49L210.5 10.8888Z" fill="#111111"/>
<path d="M27.7615 35.9495V43.5581H0.5V36.5797L15.4811 18.9476H1.5925V11.3926H27.2152V18.8089L12.4044 35.9495H27.7615Z" fill="#111111"/>
<path d="M59.2645 23.4976C58.8752 20.9902 58.0102 18.7529 56.7024 16.8513C55.9996 15.801 55.1578 14.8507 54.1998 14.0264C53.2695 13.2277 52.2282 12.5684 51.1085 12.0689C48.8785 11.0701 46.3443 10.564 43.5717 10.564C38.8866 10.564 35.0178 12.064 32.0749 15.0289C29.1319 17.9937 27.6367 22.2932 27.6367 27.8031C27.6367 33.7012 29.2974 38.0225 32.5724 40.6698C35.8183 43.294 39.6214 44.6213 43.8673 44.6213C49.0172 44.6213 53.0891 43.0397 55.959 39.918C57.818 37.9471 58.8789 35.9592 59.1076 34.015L59.166 33.5138H50.0525L49.9308 33.751C49.4734 34.6112 48.9454 35.2876 48.359 35.7669C47.2835 36.6526 45.8504 37.1052 44.1009 37.1052C42.4342 37.1052 41.001 36.7281 39.8282 35.9944C37.9912 34.8654 36.9972 32.9749 36.7952 30.2253H59.5334V29.7825C59.5784 27.0634 59.4884 24.9538 59.2645 23.4976ZM37.0459 23.9392C37.3683 22.236 38.0313 20.871 39.0167 19.8588C40.0776 18.7638 41.6142 18.2054 43.5753 18.2054C45.3856 18.2054 46.9173 18.7346 48.1303 19.787C49.241 20.7408 49.9041 22.1386 50.1145 23.9441L37.0459 23.9392Z" fill="#111111"/>
<path d="M90.974 41.502C90.5666 41.3312 90.2125 41.0544 89.9484 40.7003C89.8012 40.4898 89.6078 39.98 89.5409 38.7659C89.5056 37.3729 89.4825 36.1636 89.4825 35.1648V20.8199C89.4825 16.8879 88.0542 14.1688 85.2365 12.7356C82.5138 11.3524 79.3653 10.6492 75.8688 10.6492C70.4622 10.6492 66.5837 12.0957 64.3318 14.9523C62.9206 16.7772 62.1139 19.1276 61.9351 21.9392L61.9035 22.4185H70.6557L70.7128 22.0377C70.8929 20.9184 71.2506 20.0267 71.7749 19.3916C72.4964 18.54 73.7811 18.1154 75.595 18.1154C77.252 18.1154 78.5149 18.3429 79.3482 18.7906C80.1001 19.1982 80.4675 19.9379 80.4675 21.0523C80.4675 21.9124 79.9809 22.5402 78.9723 22.9648C78.364 23.2336 77.3019 23.4623 75.8323 23.6461L73.0341 23.9903C69.8089 24.3979 67.3234 25.0926 65.6396 26.0586C62.5179 27.8591 60.9375 30.8033 60.9375 34.7974C60.9375 37.8826 61.9217 40.3061 63.8744 42.0032C65.8051 43.687 68.2772 44.5386 71.2238 44.5386C73.522 44.5386 75.6182 44.0045 77.4491 42.9571C78.6618 42.2561 79.7852 41.4109 80.7948 40.4399C80.8398 40.7891 80.8848 41.1115 80.9383 41.4132C81.0541 42.0528 81.2359 42.6786 81.4809 43.2807L81.588 43.5629H91.2356V41.6188L90.974 41.502ZM73.6059 37.7001C72.5754 37.7001 71.725 37.4264 71.017 36.8668C70.3369 36.329 70.0048 35.4519 70.0048 34.1903C70.0048 32.7839 70.5644 31.7717 71.7153 31.1086C72.4234 30.6962 73.6412 30.3385 75.3298 30.0429L77.1888 29.6986C77.9623 29.5696 78.7235 29.3746 79.4638 29.1159C79.7974 28.9906 80.1225 28.8439 80.4371 28.6767V30.9383C80.3823 33.509 79.6621 35.2913 78.2874 36.2317C76.9155 37.1919 75.2804 37.7047 73.6059 37.7001Z" fill="#111111"/>
<path d="M102.333 0.378662H93.2637V43.558H102.333V0.378662Z" fill="#111111"/>
<path d="M132.94 15.5169C130.221 12.1104 126.061 10.3889 120.57 10.3889C115.08 10.3889 110.914 12.114 108.206 15.5169C105.515 18.8893 104.148 22.9296 104.148 27.5198C104.148 32.1915 105.515 36.244 108.206 39.5641C110.919 42.9182 115.08 44.6215 120.57 44.6215C123.316 44.6215 125.73 44.1957 127.794 43.3538C129.802 42.5505 131.572 41.2477 132.935 39.5689C135.631 36.2452 136.998 32.1927 136.998 27.5246C136.998 22.9296 135.631 18.8893 132.94 15.5169ZM115.375 20.5596C116.592 18.9708 118.277 18.1995 120.538 18.1995C122.8 18.1995 124.489 18.9708 125.694 20.556C126.9 22.1412 127.519 24.5014 127.519 27.5198C127.519 30.5382 126.911 32.885 125.694 34.4982C124.494 36.0919 122.81 36.8669 120.543 36.8669C118.277 36.8669 116.593 36.0919 115.38 34.4982C114.163 32.885 113.534 30.5394 113.534 27.5198C113.534 24.5002 114.152 22.1595 115.375 20.5596Z" fill="#111111"/>
<path d="M167.501 11.3926V43.5581H158.66V40.1638C158.389 40.526 158.082 40.8591 157.742 41.1578C156.429 42.3306 155.131 43.1554 153.89 43.591C152.649 44.0265 151.194 44.2491 149.551 44.2491C144.772 44.2491 141.498 42.4851 139.818 39.0044C138.896 37.1187 138.43 34.3205 138.43 30.6926V11.3926H147.7V30.6914C147.7 32.3947 147.897 33.683 148.287 34.5164C148.954 35.9447 150.249 36.6394 152.25 36.6394C154.857 36.6394 156.595 35.6174 157.548 33.5176C158.055 32.3618 158.31 30.79 158.31 28.8544V11.3926H167.501Z" fill="#111111"/>
<path d="M198.812 33.6464C198.812 36.8667 197.595 39.5359 195.188 41.5737C192.805 43.5945 189.105 44.6152 184.188 44.6152C179.177 44.6152 175.406 43.5312 172.982 41.39C170.559 39.2488 169.311 36.4543 169.311 33.1172V32.6695H178.447L178.496 33.0637C178.658 34.4165 178.993 35.3752 179.5 35.9081C180.427 36.902 182.217 37.4033 184.825 37.4033C186.361 37.4033 187.587 37.1794 188.474 36.7366C189.281 36.329 189.657 35.773 189.657 34.9847C189.657 34.2243 189.348 33.6634 188.716 33.2705C188.22 32.9603 186.356 32.2887 180.296 30.8555C176.687 29.965 174.092 28.8177 172.589 27.4564C171.048 26.0731 170.264 24.0706 170.264 21.4951C170.264 18.4901 171.46 15.8744 173.816 13.7198C176.171 11.5652 179.491 10.491 183.705 10.491C187.682 10.491 190.978 11.3012 193.505 12.8962C196.079 14.5264 197.576 17.3562 197.952 21.3114L197.997 21.798H188.927L188.882 21.4002C188.78 20.4366 188.517 19.675 188.085 19.1288C187.283 18.1434 185.85 17.6372 183.835 17.6372C182.155 17.6372 180.964 17.8891 180.288 18.3854C179.648 18.8563 179.334 19.3758 179.334 19.9755C179.334 20.7456 179.643 21.27 180.307 21.6143C180.84 21.9063 182.731 22.5243 188.736 23.8407C192.06 24.6205 194.594 25.8249 196.269 27.4235C197.952 29.0915 198.812 31.1792 198.812 33.6464Z" fill="#111111"/>
</svg>
