<svg xmlns="http://www.w3.org/2000/svg" width="43" height="24" viewBox="0 0 304 166" style="shape-rendering: geometricprecision; text-rendering: geometricprecision; fill-rule: evenodd; clip-rule: evenodd;"><path fill="#fefefe" d="M-.5-.5h304v166H-.5z" style="opacity: 1;"></path><path fill="#9a9ab1" d="M67.5 46.5v1q-7.295-.48-14 1-.814-.09-1-1a57.1 57.1 0 0 1 15-1" style="opacity: 1;"></path><path fill="#8e8da7" d="M180.5 47.5a381 381 0 0 1 39-1q.356 1.936-1 3-18.434-2.97-38-2" style="opacity: 1;"></path><path fill="#deb244" d="M67.5 46.5q2.872-.427 5 1l-5 26q-3.104 5.316-1 11a52 52 0 0 1 1 7h-4a113 113 0 0 1-2 12q-3.422.634-5-2 .025-3.097 1-6 2.015-3.274-1-6a28.5 28.5 0 0 1 4.5-9 3758 3758 0 0 1 6.5-33z" style="opacity: 1;"></path><path fill="#2b2b6b" d="M53.5 48.5q6.705-1.48 14-1a3758 3758 0 0 0-6.5 33 28.5 28.5 0 0 0-4.5 9q-.814.09-1 1 2.258 2.012 2 5a19.2 19.2 0 0 0-1 6q-2.352 2.053-5.5 3l-4 8q-1.147 2.349.5 4-11.222 1.488-23 1-1.61-1.127-.5-3a1274 1274 0 0 1 31-60q1.412-3.735-1.5-6" style="opacity: 1;"></path><path fill="#2b2b6c" d="M72.5 47.5q7.018-.25 14 .5l1.5 1.5q2.535 32.537 6 65 .417 1.373 1.5 2-13.227 1.49-27 1-.925-.166-1.5-1a85 85 0 0 1-.5-13h-5a113 113 0 0 0 2-12h4a52 52 0 0 0-1-7 72 72 0 0 1 1-11z" style="opacity: 1;"></path><path fill="#2b2c6c" d="M180.5 47.5q19.566-.97 38 2-.515 6.33-4 11.5l-18 1a11.5 11.5 0 0 0-4.5 3.5 203.4 203.4 0 0 0-7 35l1.5 1.5q11.574 1.2 23-.5l1 2a381 381 0 0 1-3.5 12 6.98 6.98 0 0 1-3.5 2.5q-18 1-36 0-5.56-1.404-9.5-5.5-2.276-8.37-1-17a462 462 0 0 1 8-34q4.27-11.028 15.5-14" style="opacity: 1;"></path><path fill="#2d2d6d" d="M110.5 63.5q12.234-1.735 25-.5 2.687 3.159 2 7.5 1.763.329 3-1 4.91-9.835 16-7-.738 7.71-4 14.5a59.9 59.9 0 0 1-14 2q-2.75.75-3.5 3.5-5.42 16.656-6 34l1.5 1.5q-13.5 1-27 0a4.93 4.93 0 0 1-1-2.5 2430 2430 0 0 0 11-47.5q-.033-3.274-3-4.5" style="opacity: 1;"></path><path fill="#2c2d6d" d="M271.5 116.5q-11.724 1.488-24 1-.958-.895-1-2.5a221.3 221.3 0 0 0 6.5-38.5 201 201 0 0 0-19.5-1.5 4.93 4.93 0 0 1-1-2.5 53.5 53.5 0 0 0 2-10q19.506-.25 39 .5a18.8 18.8 0 0 1 5.5 4.5 42.9 42.9 0 0 1-1 15q-5.404 16.978-6.5 34" style="opacity: 1;"></path><path fill="#6b5a53" d="M67.5 73.5a72 72 0 0 0-1 11q-2.104-5.684 1-11" style="opacity: 1;"></path><path fill="#2d2d6d" d="M230.5 82.5h18a41.7 41.7 0 0 0-1 9q-5.929.772-6.5 7-1 3 0 6 2.334 1.53 3.5 4-1.73 6.735-8 9.5-7.5 1-15 0-3.903-1.402-4.5-5.5-1.914-12.93 5-24 4.007-3.603 8.5-6" style="opacity: 1;"></path><path fill="#9b8158" d="M56.5 89.5q3.015 2.725 1 6 .258-2.988-2-5 .186-.91 1-1" style="opacity: 1;"></path><path fill="#5a5a81" d="M47.5 116.5q1.185.424 2 1.5-12.766 1.235-25-.5 11.778.488 23-1" style="opacity: 1;"></path><path fill="#58597f" d="M95.5 116.5q1.185.424 2 1.5-14.763 1.237-29-.5 13.773.49 27-1" style="opacity: 1;"></path><path fill="#5a5b81" d="M271.5 116.5q1.184.424 2 1.5-13.265 1.236-26-.5 12.276.488 24-1" style="opacity: 1;"></path></svg>