<svg xmlns="http://www.w3.org/2000/svg" width="35" height="24" fill="none" viewBox="0 0 56 34"><path fill="#F90" d="M48.877 17.3c.002 7.204-5.692 13.046-12.717 13.048s-12.72-5.837-12.722-13.042v-.007c-.002-7.205 5.691-13.047 12.716-13.049s12.72 5.838 12.723 13.043z"></path><path fill="#C00" d="M19.013 4.253c-6.984.045-12.638 5.873-12.638 13.046 0 7.201 5.698 13.046 12.72 13.046 3.295 0 6.299-1.288 8.559-3.4h-.001.003q.695-.65 1.291-1.397h-2.606q-.522-.647-.948-1.344h4.494q.41-.673.74-1.397h-5.976q-.305-.673-.532-1.37h7.04c.425-1.3.655-2.692.655-4.138 0-.96-.101-1.894-.293-2.794h-7.775q.145-.695.363-1.37h7.043q-.236-.719-.549-1.397H24.65q.322-.707.73-1.37h4.49q-.449-.734-.986-1.398H26.38q.581-.701 1.276-1.317c-2.26-2.112-5.265-3.4-8.561-3.4z"></path><path fill="#FCB340" d="M47.6 24.12a.414.414 0 0 1 .411.421.44.44 0 0 1-.054.21.41.41 0 0 1-.768-.21q0-.11.055-.21a.4.4 0 0 1 .153-.157.4.4 0 0 1 .203-.055m0 .07a.34.34 0 0 0-.297.176.36.36 0 0 0 .126.48.34.34 0 0 0 .468-.13.36.36 0 0 0 0-.35.337.337 0 0 0-.296-.177m-.18.584v-.453h.152q.078 0 .113.012a.119.119 0 0 1 .076.11.12.12 0 0 1-.035.087.13.13 0 0 1-.091.042.1.1 0 0 1 .038.024q.026.026.065.09l.054.088h-.087l-.04-.071a.4.4 0 0 0-.074-.106.1.1 0 0 0-.057-.015h-.042v.193zm.071-.256h.087q.062 0 .084-.02a.06.06 0 0 0 .023-.05.06.06 0 0 0-.01-.035.1.1 0 0 0-.031-.024.2.2 0 0 0-.072-.008h-.08z"></path><path fill="#006" d="m23.316 21.043.17-1.18c-.094 0-.23.04-.35.04-.471 0-.53-.258-.493-.447l.464-2.375h.717l.148-1.34h-.676l.138-.812H22.02c-.03.03-.8 4.567-.8 5.12 0 .818.448 1.182 1.08 1.176.494-.004.879-.145 1.015-.182M23.744 18.792c0 1.963 1.263 2.429 2.34 2.429.993 0 1.514-.236 1.514-.236l.239-1.34s-.84.35-1.522.35c-1.454 0-1.2-1.112-1.2-1.112l2.795.009s.177-.9.177-1.267c0-.915-.486-2.04-1.973-2.04-1.361.001-2.37 1.506-2.37 3.207m2.375-1.962c.765 0 .624.88.624.952h-1.504c0-.091.142-.952.88-.952M34.695 21.042l.243-1.514s-.665.342-1.121.342c-.96 0-1.346-.752-1.346-1.56 0-1.64.826-2.543 1.746-2.543.69 0 1.244.398 1.244.398l.221-1.472s-.653-.484-1.357-.487c-2.117-.008-3.328 1.503-3.328 4.116 0 1.732.897 2.91 2.513 2.91.457 0 1.185-.19 1.185-.19M15.866 15.608c-.928 0-1.64.306-1.64.306l-.197 1.197s.588-.245 1.476-.245c.504 0 .873.058.873.479 0 .255-.045.35-.045.35s-.397-.035-.582-.035c-1.322 0-2.401.513-2.401 2.059 0 1.218.807 1.497 1.307 1.497.956 0 1.334-.619 1.356-.62l-.011.513h1.192l.532-3.825c0-1.623-1.38-1.676-1.86-1.676m.207 3.107c.026.233-.059 1.337-.875 1.337-.42 0-.53-.33-.53-.524 0-.38.202-.837 1.194-.837.231 0 .172.017.21.024M18.994 21.187c.305 0 2.05.08 2.05-1.766 0-1.726-1.615-1.384-1.615-2.078 0-.345.263-.453.744-.453.191 0 .926.062.926.062l.17-1.227s-.475-.109-1.249-.109c-1.002 0-2.019.41-2.019 1.814 0 1.59 1.696 1.43 1.696 2.1 0 .448-.474.484-.84.484-.63 0-1.2-.222-1.202-.211l-.18 1.214c.032.01.383.17 1.52.17M45.867 14.495l-.245 1.871s-.51-.722-1.308-.722c-1.501 0-2.275 1.535-2.275 3.298 0 1.138.552 2.253 1.68 2.253.81 0 1.26-.58 1.26-.58l-.06.496h1.319l1.034-6.606zm-.582 3.637c0 .734-.354 1.714-1.088 1.714-.487 0-.716-.42-.716-1.079 0-1.077.472-1.787 1.067-1.787.487 0 .737.343.737 1.152M8.534 21.115l.825-4.987.12 4.987h.934l1.74-4.987-.77 4.987h1.386l1.067-6.614-2.202-.018-1.31 4.05-.036-4.032H8.27l-1.083 6.614z"></path><path fill="#006" d="M29.4 21.125c.394-2.3.534-4.115 1.684-3.74.165-.889.558-1.663.738-2.04 0 0-.057-.086-.412-.086-.607 0-1.416 1.262-1.416 1.262l.12-.78h-1.26l-.845 5.384zM37.533 15.606c-.93 0-1.641.306-1.641.306l-.197 1.197s.588-.245 1.476-.245c.504 0 .873.058.873.479 0 .255-.045.35-.045.35s-.398-.035-.582-.035c-1.322 0-2.401.513-2.401 2.059 0 1.218.807 1.497 1.307 1.497.955 0 1.334-.619 1.356-.62l-.012.513h1.193l.532-3.825c0-1.623-1.38-1.676-1.86-1.676m.206 3.106c.026.234-.06 1.338-.875 1.338-.42 0-.53-.33-.53-.524 0-.38.201-.837 1.194-.837.231 0 .172.017.21.023M40.765 21.124c.217-1.691.617-4.066 1.684-3.738.165-.89.006-.888-.349-.888-.607 0-.741.023-.741.023l.12-.78h-1.26l-.845 5.383z"></path><path fill="#fff" d="m23.669 20.621.17-1.18c-.093 0-.23.04-.35.04-.471 0-.523-.257-.493-.447l.38-2.409h.717l.173-1.306h-.676l.138-.812h-1.354c-.03.03-.8 4.568-.8 5.12 0 .818.448 1.182 1.08 1.176.494-.004.879-.144 1.015-.182M24.099 18.37c0 1.963 1.263 2.43 2.34 2.43.993 0 1.43-.228 1.43-.228l.238-1.34s-.755.341-1.438.341c-1.454 0-1.2-1.112-1.2-1.112h2.753s.177-.9.177-1.267c0-.915-.444-2.03-1.93-2.03-1.362 0-2.37 1.505-2.37 3.206m2.375-1.962c.764 0 .623.881.623.952h-1.504c0-.09.142-.952.88-.952M35.05 20.62l.242-1.514s-.664.342-1.12.342c-.961 0-1.346-.752-1.346-1.56 0-1.64.826-2.543 1.746-2.543.69 0 1.244.398 1.244.398l.221-1.472s-.82-.34-1.525-.34c-1.563 0-3.084 1.39-3.084 4.003 0 1.733.821 2.877 2.437 2.877.457 0 1.185-.19 1.185-.19M16.221 15.187c-.929 0-1.64.306-1.64.306l-.197 1.196s.588-.245 1.476-.245c.504 0 .873.059.873.479 0 .255-.045.35-.045.35s-.398-.035-.582-.035c-1.172 0-2.402.513-2.402 2.059 0 1.218.807 1.497 1.308 1.497.955 0 1.367-.636 1.389-.638l-.045.531h1.193l.532-3.825c0-1.623-1.38-1.675-1.86-1.675m.29 3.114c.026.234-.143 1.33-.958 1.33-.42 0-.53-.33-.53-.525 0-.38.201-.837 1.194-.837.23 0 .255.026.294.032M19.348 20.765c.305 0 2.049.08 2.049-1.766 0-1.725-1.614-1.384-1.614-2.078 0-.345.263-.453.743-.453.192 0 .926.062.926.062l.17-1.227s-.475-.109-1.249-.109c-1.001 0-2.018.41-2.018 1.814 0 1.59 1.695 1.43 1.695 2.1 0 .448-.474.484-.839.484-.631 0-1.2-.222-1.202-.212l-.18 1.215c.032.01.383.17 1.519.17M46.268 14.084l-.292 1.86s-.51-.723-1.308-.723c-1.241 0-2.275 1.535-2.275 3.298 0 1.138.551 2.253 1.679 2.253.811 0 1.261-.58 1.261-.58l-.06.495h1.318l1.034-6.605zm-.63 3.625c0 .734-.353 1.714-1.088 1.714-.487 0-.715-.42-.715-1.078 0-1.077.471-1.788 1.066-1.788.488 0 .738.344.738 1.152M8.888 20.694l.824-4.986.121 4.986h.933l1.741-4.986-.771 4.986h1.386l1.068-6.614h-2.144l-1.335 4.058-.07-4.058H8.666l-1.083 6.614zM29.754 20.703c.394-2.299.467-4.166 1.408-3.824.165-.89.324-1.234.503-1.61 0 0-.084-.019-.26-.019-.607 0-1.057.85-1.057.85l.121-.78h-1.26l-.846 5.383zM38.175 15.186c-.929 0-1.64.306-1.64.306l-.197 1.196s.588-.245 1.476-.245c.504 0 .873.058.873.479 0 .255-.045.35-.045.35s-.398-.035-.582-.035c-1.171 0-2.402.513-2.402 2.059 0 1.218.807 1.497 1.308 1.497.955 0 1.367-.636 1.389-.638l-.045.531h1.193l.532-3.825c0-1.623-1.38-1.676-1.86-1.676m.29 3.114c.026.234-.142 1.33-.958 1.33-.42 0-.53-.33-.53-.525 0-.38.202-.837 1.194-.837.23 0 .255.026.295.032M41.123 20.703c.394-2.299.468-4.166 1.408-3.824.165-.89.324-1.234.504-1.61 0 0-.085-.019-.262-.019-.606 0-1.056.85-1.056.85l.121-.78h-1.26l-.846 5.383zM47.596 19.872a.41.41 0 0 1 .356.21.43.43 0 0 1 0 .422.41.41 0 0 1-.562.157.43.43 0 0 1 .003-.733.4.4 0 0 1 .203-.056m0 .07a.34.34 0 0 0-.297.176.36.36 0 0 0-.001.35q.045.084.128.131a.34.34 0 0 0 .341 0 .33.33 0 0 0 .127-.13.36.36 0 0 0-.001-.351.3.3 0 0 0-.129-.13.34.34 0 0 0-.168-.046m-.18.585v-.454h.153a.4.4 0 0 1 .112.013.1.1 0 0 1 .056.044q.02.03.02.066a.12.12 0 0 1-.034.087.13.13 0 0 1-.091.04.1.1 0 0 1 .037.025q.027.027.065.09l.054.089h-.087l-.039-.072a.4.4 0 0 0-.075-.105.1.1 0 0 0-.057-.016h-.042v.193zm.072-.256h.087q.061 0 .084-.018a.06.06 0 0 0 .023-.05.06.06 0 0 0-.01-.037.07.07 0 0 0-.031-.024.2.2 0 0 0-.072-.007h-.081z"></path></svg>
